<svg xmlns="http://www.w3.org/2000/svg" viewBox="0 0 24 24" width="32" height="32">
  <path fill="#2563eb" d="M12 2C6.5 2 2 6.5 2 12s4.5 10 10 10 10-4.5 10-10S17.5 2 12 2zm-1 17.93c-3.95-.49-7-3.85-7-7.93 0-4.09 3.05-7.44 7-7.93v15.86zm2-15.86c1.03.13 2 .45 2.87.93H13v-.93zM13 6h3.76c.8.6 1.52 1.3 2.12 2.1-1.07.63-2.29 1-3.58 1.1-.3-1.73-1.1-3.36-2.3-4.73V6zm-2 11.5c-.59-1.16-1-2.3-1-3.5 0-1.2.41-2.35 1-3.5v7zm2 .5v-8c1.91-.31 3.67-1.14 5.23-2.34.76 1.1 1.24 2.39 1.36 3.77-2.13.07-4.28.7-6.07 2.04-.12-1.06-.42-2.09-.89-3.06 0 0-.83 1.82-.83 3.68 0 1.87.83 3.57.83 3.57.44-.99.74-2.03.87-3.07 1.78 1.35 3.93 1.98 6.07 2.04-.12 1.38-.6 2.67-1.36 3.77-2.58-2-5.89-2.4-8.21-1.33zm1.7 3.43c1.13.36 1.92.84 2.3 1.1-.87.47-1.84.8-2.87.93v-2.03zm-.7.06c-.52.51-1.01.82-1.45 1-.44-.18-.93-.49-1.45-1 .87.28 1.78.41 2.73.38.06 0 .12-.38.17-.38z"/>
</svg>
